# xmcd
#
# Track frame offsets:
#	150
#	14512
#	29399
#	50162
#	63990
#	82423
#	93744
#	110338
#	123035
#	134121
#	149133
#	163507
#	178082
#	190534
#	202510
#	215808
#	232077
#	248776
#	267584
#	277663
#	287425
#	302764
#	325103
#
# Disc length: 4503 seconds
#
# Revision: 0
# Processed by: cddbd v1.5.2PL0 Copyright (c) Steve Scherf et al.
# Submitted via: EZCDAudioConverter 2.0.7.1
#
DISCID=5e119517
DTITLE=Mikko Alatalo
DYEAR=1900
DGENRE=
TTITLE0=Kiiminkijoen rannalla
TTITLE1=Peninkulmin Pohjanmaata
TTITLE2=Duunari
TTITLE3=Hehtaareittain sydänsuruja
TTITLE4=Jippijai-jou
TTITLE5=Pirunviulu
TTITLE6=Synnyinkoti
TTITLE7=Kiiminki-Helsinki rock’n roll
TTITLE8=Maalaistytöt valtaa kaupungin
TTITLE9=Kuka huijaa nyt?
TTITLE10=Keikkamiehen tie
TTITLE11=Virtasen bensis
TTITLE12=Levoton mies
TTITLE13=Kuinkahan mun kotiväki voi?
TTITLE14=Pikkuriikki
TTITLE15=Vie mut takas Ouluun
TTITLE16=Rock’n Roll -miehen viidenkympin kriisi
TTITLE17=Jambalaya
TTITLE18=Kaupunkicowboy
TTITLE19=Lompolon kuu
TTITLE20=Tämä maa
TTITLE21=Sulohuulet
TTITLE22=Lättähattublues
EXTD=
EXTT0=
EXTT1=
EXTT2=
EXTT3=
EXTT4=
EXTT5=
EXTT6=
EXTT7=
EXTT8=
EXTT9=
EXTT10=
EXTT11=
EXTT12=
EXTT13=
EXTT14=
EXTT15=
EXTT16=
EXTT17=
EXTT18=
EXTT19=
EXTT20=
EXTT21=
EXTT22=
PLAYORDER=
